<svg width="14" height="18" viewBox="0 0 14 18" fill="none" xmlns="http://www.w3.org/2000/svg">
<path d="M11.8388 0H1.25945C0.565 0 0 0.5085 0 1.13351V17.3199C0 17.5666 0.148359 17.7937 0.387656 17.9139C0.502265 17.9715 0.628984 18 0.755664 18C0.893711 18 1.03125 17.9662 1.15289 17.8987L6.55062 14.8994L11.9476 17.8769C12.1809 18.0059 12.4733 18.0111 12.7118 17.8905C12.9504 17.7704 13.0982 17.5435 13.0982 17.2973V1.13351C13.0982 0.5085 12.5333 0 11.8388 0ZM11.5869 16.0823L6.94434 13.5208C6.70102 13.3867 6.39473 13.3873 6.15215 13.522L1.51133 16.1007V1.3602H11.5869V16.0823Z" fill="black"/>
</svg>
