<svg width="14" height="14" viewBox="0 0 14 14" fill="none" xmlns="http://www.w3.org/2000/svg">
<path d="M10.1576 12.3694L9.95692 12.3192L9.76412 12.3943C9.01367 12.6866 8.6369 12.8105 8.29505 12.8711C7.95144 12.9321 7.62083 12.9342 6.92929 12.9342C3.44902 12.9342 0.65 10.1721 0.65 6.79208C0.65 3.4121 3.44902 0.65 6.92929 0.65C10.4096 0.65 13.2086 3.4121 13.2086 6.79208C13.2086 7.48848 13.164 7.91116 13.0569 8.29446C12.948 8.68427 12.7646 9.07045 12.4286 9.6902L12.3081 9.91242L12.3694 10.1576L13.1067 13.1067L10.1576 12.3694ZM13.1673 13.3492C13.1673 13.3491 13.1672 13.349 13.1672 13.3489L13.1673 13.3492ZM13.3489 13.1672C13.349 13.1673 13.3491 13.1673 13.3492 13.1673L13.3489 13.1672Z" stroke="black" stroke-width="1.3"/>
</svg>
