<svg width="17" height="17" viewBox="0 0 17 17" fill="none" xmlns="http://www.w3.org/2000/svg">
<mask id="path-1-inside-1_1_505" fill="white">
<path d="M16.892 8.1692C16.7401 7.96145 13.1215 3.08228 8.49992 3.08228C3.87833 3.08228 0.259583 7.96145 0.107877 8.169C-0.0359591 8.3661 -0.0359591 8.63342 0.107877 8.83051C0.259583 9.03826 3.87833 13.9174 8.49992 13.9174C13.1215 13.9174 16.7401 9.03823 16.892 8.83068C17.036 8.63362 17.036 8.3661 16.892 8.1692ZM8.49992 12.7966C5.09563 12.7966 2.14715 9.55816 1.27434 8.49948C2.14602 7.43986 5.08832 4.20315 8.49992 4.20315C11.904 4.20315 14.8523 7.44099 15.7255 8.50024C14.8538 9.55982 11.9115 12.7966 8.49992 12.7966Z"/>
</mask>
<path d="M16.892 8.1692C16.7401 7.96145 13.1215 3.08228 8.49992 3.08228C3.87833 3.08228 0.259583 7.96145 0.107877 8.169C-0.0359591 8.3661 -0.0359591 8.63342 0.107877 8.83051C0.259583 9.03826 3.87833 13.9174 8.49992 13.9174C13.1215 13.9174 16.7401 9.03823 16.892 8.83068C17.036 8.63362 17.036 8.3661 16.892 8.1692ZM8.49992 12.7966C5.09563 12.7966 2.14715 9.55816 1.27434 8.49948C2.14602 7.43986 5.08832 4.20315 8.49992 4.20315C11.904 4.20315 14.8523 7.44099 15.7255 8.50024C14.8538 9.55982 11.9115 12.7966 8.49992 12.7966Z" fill="white"/>
<path d="M16.892 8.1692L15.2774 9.3495L15.2778 9.35004L16.892 8.1692ZM0.107877 8.169L-1.50679 6.98881L-1.50766 6.99001L0.107877 8.169ZM0.107877 8.83051L-1.50766 10.0095L-1.50733 10.01L0.107877 8.83051ZM16.892 8.83068L18.506 10.0117L18.5066 10.0109L16.892 8.83068ZM1.27434 8.49948L-0.270194 7.22888L-1.31658 8.50086L-0.268839 9.77172L1.27434 8.49948ZM15.7255 8.50024L17.27 9.77086L18.3164 8.49895L17.2687 7.22808L15.7255 8.50024ZM18.5065 6.9889C18.3823 6.81897 17.3284 5.40204 15.6492 4.0087C14.0057 2.64499 11.4972 1.08228 8.49992 1.08228V5.08228C10.1242 5.08228 11.7358 5.95915 13.0949 7.08697C14.4184 8.18515 15.2497 9.31168 15.2774 9.3495L18.5065 6.9889ZM8.49992 1.08228C5.50264 1.08228 2.99407 2.64498 1.35058 4.00865C-0.328592 5.40194 -1.38253 6.81881 -1.50679 6.98881L1.72254 9.3492C1.74999 9.31165 2.58128 8.18515 3.9048 7.08696C5.26402 5.95916 6.87561 5.08228 8.49992 5.08228V1.08228ZM-1.50766 6.99001C-2.16411 7.88952 -2.16411 9.11 -1.50766 10.0095L1.72342 7.65152C2.09219 8.15684 2.09219 8.84268 1.72342 9.348L-1.50766 6.99001ZM-1.50733 10.01C-1.38252 10.1809 -0.32852 11.5978 1.35057 12.991C2.99406 14.3547 5.50264 15.9174 8.49992 15.9174V11.9174C6.87561 11.9174 5.26402 11.0406 3.90481 9.91274C2.58121 8.81446 1.74998 7.68789 1.72308 7.65106L-1.50733 10.01ZM8.49992 15.9174C11.4972 15.9174 14.0057 14.3547 15.6492 12.991C17.3285 11.5976 18.3823 10.1807 18.506 10.0117L15.2779 7.64964C15.2497 7.68818 14.4183 8.81465 13.095 9.91275C11.7358 11.0406 10.1242 11.9174 8.49992 11.9174V15.9174ZM18.5066 10.0109C19.1642 9.11118 19.1648 7.88875 18.5062 6.98837L15.2778 9.35004C14.9072 8.84345 14.9078 8.15605 15.2773 7.65049L18.5066 10.0109ZM8.49992 10.7966C7.4147 10.7966 6.24613 10.2659 5.12819 9.43785C4.03761 8.6301 3.19979 7.69091 2.81752 7.22723L-0.268839 9.77172C0.221704 10.3667 1.29452 11.5761 2.74745 12.6522C4.17303 13.7081 6.18084 14.7966 8.49992 14.7966V10.7966ZM2.81887 9.77007C3.20036 9.30634 4.03604 8.36793 5.12525 7.56098C6.24118 6.73422 7.41024 6.20315 8.49992 6.20315V2.20315C6.178 2.20315 4.17011 3.29044 2.74408 4.34694C1.29131 5.42325 0.220004 6.633 -0.270194 7.22888L2.81887 9.77007ZM8.49992 6.20315C9.58511 6.20315 10.7536 6.73377 11.8715 7.56169C12.962 8.36936 13.7999 9.30853 14.1822 9.7724L17.2687 7.22808C16.7779 6.6327 15.7051 5.42333 14.2521 4.34727C12.8265 3.29145 10.8189 2.20315 8.49992 2.20315V6.20315ZM14.181 7.22962C13.7995 7.69335 12.9638 8.63177 11.8746 9.43873C10.7586 10.2655 9.58959 10.7966 8.49992 10.7966V14.7966C10.8218 14.7966 12.8297 13.7093 14.2558 12.6528C15.7085 11.5765 16.7798 10.3667 17.27 9.77086L14.181 7.22962Z" fill="white" mask="url(#path-1-inside-1_1_505)"/>
<mask id="path-3-inside-2_1_505" fill="white">
<path d="M8.50034 5.13745C6.64621 5.13745 5.1377 6.64597 5.1377 8.5001C5.1377 10.3542 6.64621 11.8628 8.50034 11.8628C10.3545 11.8628 11.863 10.3542 11.863 8.5001C11.863 6.64597 10.3545 5.13745 8.50034 5.13745ZM8.50034 10.7419C7.26419 10.7419 6.2586 9.73623 6.2586 8.5001C6.2586 7.26398 7.26422 6.25836 8.50034 6.25836C9.73646 6.25836 10.7421 7.26398 10.7421 8.5001C10.7421 9.73623 9.73649 10.7419 8.50034 10.7419Z"/>
</mask>
<path d="M8.50034 5.13745C6.64621 5.13745 5.1377 6.64597 5.1377 8.5001C5.1377 10.3542 6.64621 11.8628 8.50034 11.8628C10.3545 11.8628 11.863 10.3542 11.863 8.5001C11.863 6.64597 10.3545 5.13745 8.50034 5.13745ZM8.50034 10.7419C7.26419 10.7419 6.2586 9.73623 6.2586 8.5001C6.2586 7.26398 7.26422 6.25836 8.50034 6.25836C9.73646 6.25836 10.7421 7.26398 10.7421 8.5001C10.7421 9.73623 9.73649 10.7419 8.50034 10.7419Z" fill="white"/>
<path d="M8.50034 3.63745C5.81778 3.63745 3.6377 5.81755 3.6377 8.5001H6.6377C6.6377 7.47439 7.47464 6.63745 8.50034 6.63745V3.63745ZM3.6377 8.5001C3.6377 11.1827 5.81778 13.3628 8.50034 13.3628V10.3628C7.47464 10.3628 6.6377 9.52581 6.6377 8.5001H3.6377ZM8.50034 13.3628C11.1829 13.3628 13.363 11.1827 13.363 8.5001H10.363C10.363 9.52581 9.52604 10.3628 8.50034 10.3628V13.3628ZM13.363 8.5001C13.363 5.81755 11.1829 3.63745 8.50034 3.63745V6.63745C9.52604 6.63745 10.363 7.4744 10.363 8.5001H13.363ZM8.50034 9.24185C8.09263 9.24185 7.7586 8.90782 7.7586 8.5001H4.7586C4.7586 10.5646 6.43574 12.2419 8.50034 12.2419V9.24185ZM7.7586 8.5001C7.7586 8.09241 8.09265 7.75836 8.50034 7.75836V4.75836C6.43579 4.75836 4.7586 6.43556 4.7586 8.5001H7.7586ZM8.50034 7.75836C8.90803 7.75836 9.24208 8.09241 9.24208 8.5001H12.2421C12.2421 6.43556 10.5649 4.75836 8.50034 4.75836V7.75836ZM9.24208 8.5001C9.24208 8.90782 8.90805 9.24185 8.50034 9.24185V12.2419C10.5649 12.2419 12.2421 10.5646 12.2421 8.5001H9.24208Z" fill="white" mask="url(#path-3-inside-2_1_505)"/>
</svg>
