<svg width="21" height="12" viewBox="0 0 21 12" fill="none" xmlns="http://www.w3.org/2000/svg">
<path d="M17.2041 6.69191C16.8807 6.28346 16.9732 6.10174 17.2041 5.73664C17.2083 5.73247 19.8782 2.04308 20.1533 0.791893L20.1549 0.791059C20.2916 0.335096 20.1549 0 19.4939 0H17.3066C16.7498 0 16.4931 0.287582 16.3555 0.609341C16.3555 0.609341 15.2419 3.2751 13.6664 5.0031C13.1579 5.5024 12.9229 5.66245 12.6453 5.66245C12.5086 5.66245 12.296 5.50241 12.296 5.04644V0.791059C12.296 0.244236 12.1401 0 11.6792 0H8.23986C7.8906 0 7.68304 0.255073 7.68304 0.492641C7.68304 1.01112 8.47076 1.13032 8.55245 2.58907V5.75414C8.55245 6.44767 8.42658 6.57521 8.14734 6.57521C7.40379 6.57521 5.59911 3.89861 4.52964 0.835238C4.31374 0.240902 4.10285 0.000833511 3.54186 0.000833511H1.35373C0.729385 0.000833511 0.603516 0.288416 0.603516 0.610174C0.603516 1.17867 1.34706 4.00531 4.06117 7.73971C5.87002 10.2888 8.41742 11.67 10.7347 11.67C12.1276 11.67 12.2977 11.3632 12.2977 10.8356C12.2977 8.3999 12.1718 8.16983 12.8695 8.16983C13.1929 8.16983 13.7498 8.32988 15.0501 9.5594C16.5364 11.0173 16.7806 11.67 17.6125 11.67H19.7998C20.4233 11.67 20.7393 11.3632 20.5576 10.7581C20.1416 9.48521 17.3308 6.86696 17.2041 6.69191Z" fill="black"/>
</svg>
