<svg width="19" height="15" viewBox="0 0 19 15" fill="none" xmlns="http://www.w3.org/2000/svg">
<path d="M16.3458 3.55373C17.059 3.04731 17.659 2.41519 18.1478 1.68735V1.68662C17.4953 1.97235 16.801 2.16235 16.0761 2.25442C16.8215 1.80938 17.3908 1.11004 17.6582 0.267461C16.9633 0.681808 16.1959 0.974115 15.3782 1.13781C14.7183 0.434808 13.7778 0 12.7518 0C10.7612 0 9.15864 1.61573 9.15864 3.59612C9.15864 3.88112 9.18276 4.15515 9.24195 4.41604C6.2531 4.26988 3.60772 2.83758 1.83049 0.654769C1.52064 1.19335 1.33795 1.80938 1.33795 2.47219C1.33795 3.71742 1.97884 4.82088 2.93541 5.46031C2.35737 5.44935 1.79103 5.28127 1.31091 5.01746V5.05692C1.31091 6.80419 2.55687 8.2555 4.19161 8.59019C3.89857 8.67058 3.57995 8.70858 3.24891 8.70858C3.01872 8.70858 2.78634 8.69542 2.56857 8.64719C3.03407 10.0707 4.35676 11.1179 5.92791 11.1523C4.70461 12.1088 3.15099 12.6854 1.46949 12.6854C1.17499 12.6854 0.892183 12.6723 0.609375 12.6365C2.20245 13.6632 4.0893 14.25 6.12522 14.25C12.4705 14.25 16.6059 8.95631 16.3458 3.55373Z" fill="black"/>
</svg>
